<svg xmlns="http://www.w3.org/2000/svg" viewBox="0 0 400 300" fill="none">
  <!-- Background -->
  <rect width="400" height="300" rx="16" fill="#EFF6FF"/>
  <!-- Family group -->
  <!-- Father -->
  <circle cx="130" cy="100" r="22" fill="#F59E0B"/>
  <rect x="115" y="122" width="30" height="40" rx="6" fill="#2563EB"/>
  <rect x="115" y="162" width="13" height="30" rx="4" fill="#1E3A5F"/>
  <rect x="132" y="162" width="13" height="30" rx="4" fill="#1E3A5F"/>
  <!-- Mother -->
  <circle cx="200" cy="100" r="22" fill="#F59E0B"/>
  <path d="M178 96 C178 82, 222 82, 222 96" fill="#92400E"/>
  <rect x="185" y="122" width="30" height="45" rx="6" fill="#EC4899"/>
  <rect x="185" y="167" width="13" height="25" rx="4" fill="#831843"/>
  <rect x="202" y="167" width="13" height="25" rx="4" fill="#831843"/>
  <!-- Child (girl) -->
  <circle cx="270" cy="125" r="16" fill="#F59E0B"/>
  <path d="M254 122 C254 112, 286 112, 286 122" fill="#92400E"/>
  <rect x="260" y="141" width="20" height="28" rx="5" fill="#A855F7"/>
  <rect x="260" y="169" width="9" height="20" rx="3" fill="#581C87"/>
  <rect x="271" y="169" width="9" height="20" rx="3" fill="#581C87"/>
  <!-- Heart -->
  <path d="M190 215 C190 205, 175 195, 175 210 C175 225, 190 235, 200 245 C210 235, 225 225, 225 210 C225 195, 210 205, 210 215 C210 220, 200 230, 200 230 C200 230, 190 220, 190 215Z" fill="#F43F5E" opacity="0.7"/>
  <!-- Article 6 GG badge -->
  <rect x="120" y="255" width="160" height="30" rx="8" fill="#1E40AF"/>
  <text x="200" y="275" text-anchor="middle" font-family="Arial, sans-serif" font-size="13" font-weight="bold" fill="white">Art. 6 GG – Schutz der Familie</text>
</svg>