<svg xmlns="http://www.w3.org/2000/svg" viewBox="0 0 400 300" fill="none">
  <!-- Background -->
  <rect width="400" height="300" rx="16" fill="#F0FDF4"/>
  <!-- Flow: Bundestag wählt Kanzler → Kanzler schlägt Minister vor → Präsident ernennt -->
  <!-- Step 1: Bundestag -->
  <rect x="30" y="30" width="100" height="70" rx="10" fill="#DBEAFE" stroke="#2563EB" stroke-width="2"/>
  <text x="80" y="55" text-anchor="middle" font-family="Arial, sans-serif" font-size="11" font-weight="bold" fill="#1E40AF">Bundestag</text>
  <text x="80" y="72" text-anchor="middle" font-family="Arial, sans-serif" font-size="9" fill="#2563EB">wählt</text>
  <!-- Arrow 1 -->
  <line x1="130" y1="65" x2="155" y2="65" stroke="#2563EB" stroke-width="2"/>
  <polygon points="155,60 165,65 155,70" fill="#2563EB"/>
  <!-- Step 2: Kanzler -->
  <rect x="165" y="30" width="100" height="70" rx="10" fill="#FEF9C3" stroke="#CA8A04" stroke-width="2"/>
  <circle cx="215" cy="52" r="12" fill="#F59E0B"/>
  <rect x="207" y="64" width="16" height="18" rx="3" fill="#1E40AF"/>
  <text x="215" y="92" text-anchor="middle" font-family="Arial, sans-serif" font-size="9" font-weight="bold" fill="#92400E">Kanzler/in</text>
  <!-- Arrow 2 down -->
  <line x1="215" y1="100" x2="215" y2="130" stroke="#CA8A04" stroke-width="2"/>
  <polygon points="210,130 220,130 215,140" fill="#CA8A04"/>
  <!-- Step 3: Kanzler schlägt Minister vor -->
  <rect x="130" y="140" width="170" height="50" rx="10" fill="#DCFCE7" stroke="#16A34A" stroke-width="2"/>
  <text x="215" y="162" text-anchor="middle" font-family="Arial, sans-serif" font-size="11" font-weight="bold" fill="#166534">schlägt Minister vor</text>
  <text x="215" y="178" text-anchor="middle" font-family="Arial, sans-serif" font-size="9" fill="#16A34A">Vorschlagsrecht</text>
  <!-- Arrow 3 down -->
  <line x1="215" y1="190" x2="215" y2="210" stroke="#16A34A" stroke-width="2"/>
  <polygon points="210,210 220,210 215,220" fill="#16A34A"/>
  <!-- Step 4: Bundespräsident ernennt -->
  <rect x="120" y="220" width="190" height="50" rx="10" fill="#F3E8FF" stroke="#7C3AED" stroke-width="2"/>
  <text x="215" y="242" text-anchor="middle" font-family="Arial, sans-serif" font-size="11" font-weight="bold" fill="#5B21B6">Bundespräsident/in</text>
  <text x="215" y="258" text-anchor="middle" font-family="Arial, sans-serif" font-size="9" fill="#7C3AED">ernennt die Minister</text>
  <!-- Bundespräsident icon -->
  <rect x="280" y="30" width="90" height="70" rx="10" fill="#F3E8FF" stroke="#7C3AED" stroke-width="2"/>
  <circle cx="325" cy="52" r="12" fill="#F59E0B"/>
  <rect x="317" y="64" width="16" height="18" rx="3" fill="#7C3AED"/>
  <text x="325" y="92" text-anchor="middle" font-family="Arial, sans-serif" font-size="9" font-weight="bold" fill="#5B21B6">Präsident/in</text>
  <!-- Dashed line from Präsident to ernennt -->
  <line x1="325" y1="100" x2="325" y2="220" stroke="#7C3AED" stroke-width="1.5" stroke-dasharray="6,4"/>
</svg>