<svg xmlns="http://www.w3.org/2000/svg" viewBox="0 0 650 670" width="650" height="670">
  <defs>
    <style>
      .lbl { font-family: -apple-system, system-ui, sans-serif; font-size: 13px; font-weight: 700; fill: #1f2937; }
      .lbl-sm { font-family: -apple-system, system-ui, sans-serif; font-size: 10.5px; font-weight: 600; fill: #374151; }
      .lbl-bg { fill: #ffffff; fill-opacity: 0.92; rx: 3; ry: 3; }
      .de-lbl { font-family: -apple-system, system-ui, sans-serif; font-size: 18px; font-weight: 800; fill: #78350f; text-anchor: middle; }
      .legend { font-family: -apple-system, system-ui, sans-serif; font-size: 12px; fill: #374151; }
    </style>
  </defs>
  <rect width="650" height="670" fill="#f0f4f8"/>
  <rect x="0" y="0" width="650" height="110.21739130434783" fill="#bfdbfe" fill-opacity="0.25" rx="0"/>
  <path d="M232.6,441.0 L229.9,445.0 L227.0,446.0 L221.9,446.0 L219.4,443.5 L216.3,443.5 L210.7,447.6 L214.4,450.8 L202.1,463.6 L194.3,467.0 L192.6,475.4 L183.4,481.7 L180.0,488.3 L179.7,489.6 L182.0,491.8 L181.0,496.1 L176.4,498.9 L176.4,501.7 L177.7,502.1 L184.9,499.9 L187.6,497.3 L186.2,493.8 L193.3,489.5 L206.1,490.6 L207.6,496.3 L206.0,501.1 L215.2,511.5 L207.2,516.3 L206.7,519.5 L214.9,530.0 L30.0,530.0 L30.0,290.7 L49.4,286.6 L52.2,292.8 L52.0,296.3 L58.0,301.7 L61.0,303.4 L70.8,300.5 L75.5,305.5 L77.0,311.2 L88.8,313.6 L92.3,321.0 L94.5,319.4 L101.9,319.7 L105.4,320.4 L110.2,323.6 L108.7,328.1 L110.8,330.3 L108.8,334.3 L110.2,336.1 L123.8,336.1 L127.9,334.2 L129.8,330.1 L132.2,328.3 L135.5,328.4 L132.9,336.1 L134.8,338.1 L135.7,343.6 L140.9,344.0 L150.9,348.4 L159.3,355.6 L169.7,354.4 L177.9,358.5 L186.4,356.3 L194.4,358.6 L197.2,360.7 L204.6,370.8 L210.4,368.8 L214.4,370.0 L215.7,372.9 L231.0,371.2 L233.8,374.1 L236.9,375.1 L256.2,379.0 L256.4,382.8 L245.3,393.7 L240.4,409.1 L237.1,414.5 L235.9,418.5 L236.8,421.2 L236.3,425.4 L233.9,435.5 L235.2,438.4 L237.1,439.0 L232.6,441.0 Z" fill="#d1d5db" stroke="#6b7280" stroke-width="0.7" stroke-linejoin="round"/>
  <path d="M177.3,301.7 L166.2,300.7 L164.2,297.7 L168.3,293.0 L170.8,287.1 L171.1,285.4 L170.0,284.2 L163.1,282.2 L158.2,278.5 L152.1,279.6 L148.5,278.7 L144.3,275.8 L141.8,270.5 L138.6,273.1 L135.0,273.3 L131.6,269.5 L127.1,272.5 L122.3,270.2 L117.9,272.3 L118.6,274.9 L117.5,275.4 L104.0,271.6 L97.2,273.1 L88.5,271.1 L83.4,267.4 L87.1,265.3 L94.3,265.0 L99.5,265.9 L109.0,271.1 L113.9,270.4 L103.9,265.0 L110.5,264.3 L101.8,255.6 L106.9,247.6 L111.4,244.8 L121.6,233.9 L124.5,228.1 L128.8,212.2 L132.1,206.5 L136.5,207.9 L142.9,205.6 L153.8,199.7 L157.1,194.6 L160.2,192.2 L179.8,186.2 L207.6,184.7 L213.2,189.7 L221.6,191.6 L221.4,203.9 L216.3,215.0 L215.6,219.1 L203.7,220.5 L203.0,224.3 L205.1,227.2 L213.2,228.1 L215.7,230.9 L215.1,235.8 L213.5,238.5 L204.2,243.9 L203.9,245.8 L207.0,248.8 L204.9,251.3 L196.6,253.7 L193.2,253.5 L190.6,255.0 L183.6,252.6 L175.6,256.0 L175.6,257.7 L180.8,263.1 L184.8,271.3 L180.3,281.1 L180.5,283.0 L182.3,284.5 L175.3,289.1 L172.2,289.6 L179.3,295.0 L177.3,301.7 Z M112.1,274.1 L110.1,277.5 L100.1,281.8 L88.3,278.4 L82.8,280.2 L80.9,278.2 L79.8,274.4 L88.6,273.5 L99.5,275.5 L104.2,273.7 L107.9,275.2 L112.1,274.1 Z M132.8,203.9 L129.9,202.3 L131.0,199.9 L136.4,195.9 L136.4,200.8 L132.8,203.9 Z M101.9,258.7 L106.5,262.7 L101.9,263.6 L97.1,260.7 L93.9,261.4 L92.6,259.1 L101.9,258.7 Z" fill="#d1d5db" stroke="#6b7280" stroke-width="0.7" stroke-linejoin="round"/>
  <path d="M112.1,274.1 L118.6,274.9 L117.9,272.3 L122.3,270.2 L127.1,272.5 L131.6,269.5 L135.0,273.3 L138.6,273.1 L141.8,270.5 L144.3,275.8 L148.5,278.7 L152.1,279.6 L158.2,278.5 L163.1,282.2 L171.1,285.4 L168.3,293.0 L164.2,297.7 L166.2,300.7 L168.2,301.3 L177.3,301.7 L186.2,308.4 L183.7,310.6 L184.1,311.6 L190.1,314.7 L190.9,320.6 L184.0,324.2 L181.8,329.1 L180.8,327.6 L176.6,327.1 L172.6,330.7 L168.1,337.8 L167.4,342.7 L173.1,349.8 L170.7,353.7 L159.3,355.6 L150.9,348.4 L140.9,344.0 L135.7,343.6 L134.8,338.1 L132.9,336.1 L135.5,328.4 L133.9,327.7 L129.8,330.1 L127.9,334.2 L123.8,336.1 L117.3,336.7 L109.3,335.6 L108.8,334.3 L110.8,330.3 L108.7,328.1 L110.2,323.6 L105.4,320.4 L101.9,319.7 L94.5,319.4 L92.3,321.0 L88.8,313.6 L77.0,311.2 L75.5,305.5 L70.8,300.5 L61.0,303.4 L58.0,301.7 L52.0,296.3 L52.2,292.8 L49.4,286.6 L79.8,274.4 L80.9,278.2 L82.8,280.2 L88.3,278.4 L100.1,281.8 L110.1,277.5 L112.1,274.1 Z" fill="#d1d5db" stroke="#6b7280" stroke-width="0.7" stroke-linejoin="round"/>
  <path d="M180.8,327.6 L182.6,335.5 L186.9,339.9 L195.5,343.1 L195.4,347.1 L191.5,351.8 L190.2,358.1 L184.2,356.1 L177.9,358.5 L169.7,354.4 L173.1,349.8 L167.4,342.7 L168.1,337.8 L172.6,330.7 L176.6,327.1 L180.8,327.6 Z" fill="#d1d5db" stroke="#6b7280" stroke-width="0.7" stroke-linejoin="round"/>
  <path d="M294.9,435.6 L311.2,444.5 L306.0,457.3 L306.1,462.1 L319.3,464.5 L320.5,467.5 L329.9,471.2 L337.9,465.4 L340.3,466.3 L341.8,469.2 L339.7,479.3 L341.2,481.4 L340.9,484.3 L335.0,483.7 L332.2,481.3 L328.2,482.2 L326.4,487.3 L329.0,492.5 L329.7,497.9 L326.5,497.9 L322.8,492.5 L311.7,495.4 L307.6,494.9 L305.9,493.1 L303.9,487.3 L299.3,486.7 L297.7,487.6 L297.4,495.8 L288.2,507.6 L289.8,513.7 L286.4,515.7 L279.9,508.4 L281.4,504.9 L274.9,503.4 L268.2,497.6 L266.8,488.9 L264.9,488.9 L254.8,496.5 L255.9,501.3 L251.0,507.6 L243.4,511.7 L234.2,509.2 L219.1,513.5 L216.4,512.4 L206.0,501.1 L207.6,496.3 L205.5,490.2 L193.3,489.5 L186.2,493.8 L187.6,497.3 L184.9,499.9 L180.7,501.9 L176.4,501.7 L176.4,498.9 L181.0,496.1 L182.0,491.8 L179.7,489.6 L183.4,481.7 L192.6,475.4 L194.3,467.0 L202.1,463.6 L212.6,453.2 L214.4,450.0 L210.7,447.6 L216.3,443.5 L219.4,443.5 L221.9,446.0 L224.2,446.3 L229.9,445.0 L232.6,441.0 L237.1,439.0 L248.6,440.3 L258.6,438.4 L268.0,438.9 L271.9,437.7 L272.2,436.4 L267.9,436.4 L266.1,434.9 L267.3,433.0 L272.4,431.1 L278.1,434.3 L281.9,434.2 L283.7,436.2 L294.9,435.6 Z" fill="#d1d5db" stroke="#6b7280" stroke-width="0.7" stroke-linejoin="round"/>
  <path d="M307.6,453.0 L311.2,444.5 L307.4,442.0 L312.1,441.9 L315.7,439.8 L326.3,444.2 L327.7,446.2 L327.4,447.7 L332.4,449.0 L331.7,452.7 L333.9,452.4 L338.6,448.9 L341.2,440.8 L357.2,442.2 L361.2,447.5 L363.4,447.7 L372.9,446.3 L376.4,443.6 L388.3,439.4 L405.6,437.8 L406.5,433.6 L416.6,437.1 L424.0,435.7 L427.2,437.0 L428.6,441.2 L436.2,444.0 L437.6,436.3 L436.9,434.4 L431.9,433.4 L433.9,429.7 L433.9,426.1 L426.8,418.0 L428.8,414.3 L449.4,405.6 L453.6,396.0 L460.5,398.6 L462.3,397.7 L464.6,395.8 L465.7,388.0 L472.1,391.2 L474.3,395.1 L486.1,396.3 L490.5,394.1 L498.0,395.3 L498.6,392.1 L501.5,388.8 L502.8,387.7 L506.5,387.8 L509.1,377.8 L515.3,380.2 L520.8,379.0 L535.2,383.9 L539.8,383.7 L548.4,388.5 L559.8,389.2 L563.9,386.5 L566.3,386.7 L578.8,390.7 L581.4,395.3 L578.1,402.1 L578.2,404.5 L586.3,419.6 L588.6,421.0 L586.4,422.9 L584.2,428.4 L585.6,434.0 L575.2,435.3 L568.0,432.2 L561.8,435.5 L569.8,438.3 L571.2,441.5 L569.2,445.3 L562.6,447.4 L563.3,452.9 L561.6,455.1 L562.4,458.4 L564.4,459.4 L563.3,463.8 L555.6,466.0 L547.6,471.5 L545.4,473.4 L544.7,478.8 L537.7,477.3 L532.7,477.9 L525.6,480.9 L517.4,480.3 L505.4,481.9 L500.4,486.6 L492.8,490.9 L416.4,479.0 L413.1,477.7 L404.4,467.6 L403.6,465.4 L406.2,462.1 L405.0,461.2 L390.5,465.4 L370.9,465.8 L366.8,467.6 L362.8,473.6 L359.2,474.8 L353.0,473.8 L350.4,471.5 L341.7,470.7 L340.3,466.3 L337.9,465.4 L329.9,471.2 L320.5,467.5 L319.3,464.5 L309.5,462.3 L310.6,460.1 L307.6,453.0 Z" fill="#d1d5db" stroke="#6b7280" stroke-width="0.7" stroke-linejoin="round"/>
  <path d="M620.0,376.7 L611.1,382.7 L606.2,384.7 L588.1,384.7 L585.5,387.4 L581.4,395.3 L578.8,390.7 L566.3,386.7 L563.9,386.5 L559.8,389.2 L548.4,388.5 L539.8,383.7 L535.2,383.9 L520.8,379.0 L515.3,380.2 L509.1,377.8 L506.5,387.8 L502.8,387.7 L501.5,388.8 L498.6,392.1 L498.0,395.3 L490.5,394.1 L486.1,396.3 L474.3,395.1 L472.1,391.2 L465.7,388.0 L455.8,379.6 L451.9,379.8 L446.3,373.6 L440.8,370.9 L432.6,363.5 L428.7,363.5 L423.9,359.8 L413.2,345.7 L417.6,338.9 L406.4,330.1 L402.1,321.2 L405.2,321.8 L409.0,326.5 L415.4,319.1 L419.0,317.2 L427.0,315.6 L433.5,316.7 L436.2,313.0 L442.3,312.2 L444.4,309.3 L449.4,307.3 L451.7,308.2 L456.2,303.7 L468.8,301.2 L486.1,295.3 L481.9,290.8 L482.9,289.6 L492.6,291.1 L495.5,294.6 L495.1,297.1 L499.2,298.9 L508.7,295.8 L509.1,290.2 L514.0,291.2 L518.9,292.7 L519.6,296.0 L522.4,299.1 L536.3,302.2 L544.4,305.2 L546.5,307.8 L556.7,305.8 L559.5,307.3 L561.7,309.4 L560.2,311.9 L554.0,315.9 L558.6,318.4 L569.8,329.9 L582.7,324.0 L578.7,315.8 L588.7,317.9 L598.4,323.3 L609.7,321.4 L610.2,324.3 L609.3,325.9 L605.1,328.3 L613.8,335.1 L620.0,333.9 L620.0,376.7 Z" fill="#d1d5db" stroke="#6b7280" stroke-width="0.7" stroke-linejoin="round"/>
  <path d="M619.4,334.4 L613.8,335.1 L605.1,328.3 L610.2,324.3 L609.0,321.0 L598.4,323.3 L588.7,317.9 L578.7,315.8 L582.7,324.0 L569.8,329.9 L558.6,318.4 L554.0,315.9 L559.4,312.6 L561.7,309.4 L556.7,305.8 L546.5,307.8 L544.4,305.2 L536.3,302.2 L522.4,299.1 L519.6,296.0 L518.9,292.7 L509.1,290.2 L508.7,295.8 L502.3,297.0 L508.0,286.7 L510.0,279.9 L505.9,270.7 L499.2,268.1 L499.2,262.1 L494.7,254.7 L497.4,251.5 L500.2,243.8 L498.5,242.6 L497.6,236.5 L495.2,235.3 L493.0,231.8 L495.3,224.4 L491.5,219.3 L477.2,209.2 L477.6,206.8 L486.1,199.3 L487.7,195.3 L487.8,191.6 L482.0,172.2 L494.0,176.1 L492.9,173.2 L493.1,168.1 L480.4,166.1 L480.3,162.6 L486.7,163.7 L520.0,154.4 L553.1,147.8 L566.9,136.4 L578.9,134.5 L592.8,128.7 L620.0,124.4 L619.4,334.4 Z" fill="#d1d5db" stroke="#6b7280" stroke-width="0.7" stroke-linejoin="round"/>
  <path d="M419.8,87.2 L407.7,93.6 L406.7,96.7 L408.9,98.9 L413.0,100.2 L414.0,104.5 L410.6,106.6 L402.1,108.8 L400.6,125.0 L393.7,126.8 L389.2,120.6 L386.0,108.8 L372.4,108.1 L368.2,102.7 L368.9,96.7 L366.6,93.7 L366.3,90.8 L362.2,88.9 L361.1,85.6 L373.8,84.2 L379.0,78.7 L379.4,75.9 L385.0,75.4 L387.5,77.5 L387.4,85.3 L392.1,86.6 L395.9,81.0 L396.3,78.0 L393.8,74.9 L406.8,68.3 L410.7,68.2 L418.1,69.9 L421.2,72.0 L418.1,77.0 L419.8,87.2 Z M314.9,124.5 L310.8,123.2 L297.5,125.3 L284.5,121.4 L276.0,121.2 L274.8,115.0 L272.4,111.1 L275.9,110.2 L274.0,98.8 L256.1,90.9 L258.7,74.2 L255.7,67.4 L257.3,47.1 L261.6,46.7 L271.6,49.1 L276.0,51.9 L277.7,49.8 L278.4,46.2 L284.0,41.5 L290.6,39.0 L295.4,43.0 L297.4,30.0 L336.0,30.0 L335.4,46.5 L343.1,50.8 L356.2,50.8 L357.6,52.0 L359.2,54.2 L356.6,60.6 L347.9,64.7 L344.9,64.8 L340.7,61.5 L338.8,62.5 L336.8,64.2 L331.7,79.3 L325.6,78.9 L321.4,80.3 L325.9,83.9 L309.9,95.5 L312.9,105.4 L311.8,108.1 L306.7,111.9 L304.9,115.2 L311.9,116.0 L315.1,118.3 L314.1,120.1 L314.9,124.5 Z M287.3,30.0 L279.7,41.9 L268.5,44.6 L261.1,40.7 L261.7,36.4 L267.9,30.0 L287.3,30.0 Z M350.3,92.7 L355.2,103.0 L354.0,105.2 L354.8,108.1 L354.0,111.2 L348.0,114.7 L341.3,114.8 L324.6,109.9 L319.8,101.4 L319.9,94.5 L335.6,90.4 L343.6,92.7 L348.0,90.3 L350.3,92.7 Z M381.7,124.4 L389.1,125.3 L390.1,130.9 L378.7,133.1 L363.2,126.8 L364.0,119.5 L371.4,119.1 L381.7,124.4 Z M350.4,128.0 L347.9,123.4 L360.1,110.2 L353.2,125.7 L352.1,127.8 L350.4,128.0 Z M419.0,118.4 L411.9,118.6 L405.6,121.6 L403.1,120.7 L404.7,118.1 L408.3,116.0 L408.9,114.2 L417.7,117.1 L419.0,118.4 Z M340.4,124.0 L337.6,123.1 L332.4,118.6 L343.6,123.0 L340.4,124.0 Z M323.4,122.5 L317.9,121.0 L316.6,114.4 L325.0,117.5 L327.3,121.9 L323.4,122.5 Z M346.8,83.7 L344.4,82.9 L345.1,77.5 L344.0,75.3 L345.2,73.8 L349.4,78.8 L346.8,83.7 Z M511.2,116.7 L497.7,112.5 L498.8,106.6 L500.7,104.1 L514.3,110.7 L514.4,113.2 L511.2,116.7 Z" fill="#d1d5db" stroke="#6b7280" stroke-width="0.7" stroke-linejoin="round"/>
  <path d="M307.4,442.0 L294.9,435.6 L283.7,436.2 L281.9,434.2 L278.1,434.3 L272.4,431.1 L267.3,433.0 L266.1,434.9 L266.5,436.0 L272.3,437.1 L267.1,439.0 L258.6,438.4 L248.6,440.3 L240.1,440.0 L235.2,438.4 L233.9,435.5 L234.2,431.1 L236.3,425.4 L236.8,421.2 L235.9,418.5 L237.1,414.5 L240.4,409.1 L245.3,393.7 L256.4,382.8 L256.2,379.0 L236.9,375.1 L233.8,374.1 L231.0,371.2 L215.7,372.9 L214.4,370.0 L210.4,368.8 L204.6,370.8 L197.2,360.7 L194.4,358.6 L190.2,358.1 L191.5,351.8 L195.4,347.1 L195.5,343.1 L186.9,339.9 L181.5,332.9 L182.0,328.3 L184.0,324.2 L190.9,320.6 L190.1,314.7 L184.1,311.6 L183.7,310.6 L186.2,308.4 L177.3,301.7 L179.3,295.0 L172.2,289.6 L175.3,289.1 L182.3,284.5 L180.5,283.0 L180.3,281.1 L184.8,271.3 L180.8,263.1 L175.6,257.7 L175.6,256.0 L183.6,252.6 L190.6,255.0 L204.9,251.3 L207.1,248.3 L203.9,245.8 L204.2,243.9 L213.5,238.5 L215.1,235.8 L215.7,230.9 L214.4,229.2 L205.1,227.2 L203.0,224.3 L203.7,220.5 L205.1,219.8 L214.9,219.8 L218.7,208.8 L221.0,205.4 L221.6,191.6 L216.3,187.6 L218.3,179.7 L222.0,175.5 L224.9,174.3 L251.6,173.9 L257.4,180.3 L255.3,183.6 L260.3,184.6 L263.6,177.6 L269.4,181.5 L269.5,186.8 L271.1,179.7 L269.9,174.7 L270.7,170.0 L274.1,165.9 L284.4,167.6 L295.7,166.7 L300.0,168.5 L309.7,177.8 L317.0,179.8 L311.4,177.8 L299.6,166.6 L287.3,163.6 L284.6,160.4 L284.7,149.1 L280.0,146.8 L275.0,147.6 L274.3,145.0 L275.1,143.1 L286.3,140.1 L286.5,137.0 L276.4,126.0 L276.0,121.2 L284.5,121.4 L297.5,125.3 L310.8,123.2 L321.0,126.5 L325.8,131.1 L326.1,135.2 L320.2,139.9 L330.3,139.2 L332.8,142.7 L338.3,141.4 L352.0,146.7 L362.4,143.9 L364.2,148.2 L362.2,152.6 L354.9,157.2 L356.5,160.0 L358.8,160.6 L365.7,160.0 L376.6,162.8 L391.2,154.1 L402.9,153.1 L420.0,140.1 L436.7,142.6 L441.1,148.1 L452.1,154.3 L462.3,153.8 L465.9,159.6 L467.5,166.8 L473.4,170.5 L482.0,172.2 L487.8,191.6 L487.7,195.3 L486.1,199.3 L477.6,206.8 L477.2,209.2 L491.5,219.3 L495.3,224.4 L493.0,231.8 L495.2,235.3 L497.6,236.5 L498.5,242.6 L500.2,243.8 L497.4,251.5 L494.7,254.7 L499.2,262.1 L499.2,268.1 L507.0,271.9 L510.0,279.9 L508.0,286.7 L500.8,298.8 L495.1,297.1 L495.5,294.6 L492.6,291.1 L484.3,289.2 L481.9,290.8 L486.1,295.3 L468.8,301.2 L456.2,303.7 L451.7,308.2 L449.4,307.3 L444.4,309.3 L442.3,312.2 L436.2,313.0 L433.5,316.7 L427.0,315.6 L419.0,317.2 L415.4,319.1 L409.0,326.5 L403.7,320.8 L402.4,320.8 L402.1,322.7 L406.4,330.1 L417.6,338.9 L413.2,345.7 L422.1,357.8 L428.7,363.5 L432.6,363.5 L440.8,370.9 L446.3,373.6 L450.4,378.8 L455.8,379.6 L464.0,385.8 L465.7,388.0 L464.6,395.8 L460.5,398.6 L453.6,396.0 L449.4,405.6 L431.8,412.4 L426.8,416.7 L426.8,418.0 L433.9,426.1 L433.9,429.7 L431.9,433.4 L436.9,434.4 L437.6,436.3 L436.2,444.0 L428.6,441.2 L427.2,437.0 L424.0,435.7 L416.6,437.1 L406.5,433.6 L405.6,437.8 L388.3,439.4 L376.4,443.6 L372.9,446.3 L363.4,447.7 L361.2,447.5 L357.2,442.2 L341.2,440.8 L338.6,448.9 L336.5,451.2 L331.7,452.7 L332.4,449.0 L327.4,447.7 L327.2,445.3 L324.0,442.8 L315.7,439.8 L312.1,441.9 L307.4,442.0 Z M462.7,146.7 L461.7,148.2 L457.6,145.7 L453.4,145.8 L450.9,149.6 L449.1,149.7 L441.6,144.6 L442.1,136.8 L444.2,135.1 L444.5,132.7 L448.0,130.1 L451.2,130.0 L453.7,133.7 L459.9,136.1 L460.4,137.2 L457.0,140.3 L457.8,142.0 L461.8,143.8 L462.7,146.7 Z M480.3,162.6 L480.4,166.1 L469.8,165.7 L468.9,163.1 L469.6,160.6 L466.1,157.8 L466.1,154.9 L480.3,162.6 Z M366.6,142.3 L362.3,140.2 L363.5,138.0 L365.0,137.2 L370.5,138.6 L372.3,142.3 L366.6,142.3 Z M261.7,127.1 L262.2,120.9 L266.2,114.4 L267.9,114.5 L265.6,117.6 L265.3,121.3 L274.5,121.7 L273.4,122.8 L264.1,123.6 L261.7,127.1 Z" fill="#f59e0b" stroke="#92400e" stroke-width="1.0" stroke-linejoin="round"/>
  <rect x="302.6" y="67.2" width="96" height="20" class="lbl-bg"/>
  <text class="lbl" x="306.6" y="82.2">🇩🇰 Dänemark</text>
  <rect x="542.2" y="232.4" width="72" height="20" class="lbl-bg"/>
  <text class="lbl" x="546.2" y="247.4">🇵🇱 Polen</text>
  <rect x="523.8" y="341.1" width="112" height="20" class="lbl-bg"/>
  <text class="lbl" x="527.8" y="356.1">🇨🇿 Tschechien</text>
  <rect x="486.9" y="441.1" width="112" height="20" class="lbl-bg"/>
  <text class="lbl" x="490.9" y="456.1">🇦🇹 Österreich</text>
  <rect x="228.8" y="480.2" width="88" height="20" class="lbl-bg"/>
  <text class="lbl" x="232.8" y="495.2">🇨🇭 Schweiz</text>
  <rect x="81.3" y="406.3" width="112" height="20" class="lbl-bg"/>
  <text class="lbl" x="85.3" y="421.3">🇫🇷 Frankreich</text>
  <rect x="136.6" y="336.4" width="56" height="16" class="lbl-bg"/>
  <text class="lbl-sm" x="140.6" y="347.4">🇱🇺 Lux.</text>
  <rect x="92.4" y="284.6" width="88" height="20" class="lbl-bg"/>
  <text class="lbl" x="96.4" y="299.6">🇧🇪 Belgien</text>
  <rect x="118.2" y="210.7" width="120" height="20" class="lbl-bg"/>
  <text class="lbl" x="122.2" y="225.7">🇳🇱 Niederlande</text>
  <text class="de-lbl" x="343.4" y="290.9">🇩🇪 Deutschland</text>
  <rect x="160" y="630" width="16" height="14" rx="2" fill="#f59e0b" stroke="#92400e" stroke-width="0.8"/>
  <text class="legend" x="182" y="642">Deutschland</text>
  <rect x="310" y="630" width="16" height="14" rx="2" fill="#d1d5db" stroke="#6b7280" stroke-width="0.6"/>
  <text class="legend" x="332" y="642">9 Nachbarländer / 9 Neighbors</text>
  <text font-family="-apple-system, sans-serif" font-size="12" fill="#6b7280" font-style="italic" text-anchor="middle" x="325" y="662">Deutschland (gelb) und seine 9 Nachbarländer (grau)</text>
</svg>