<svg xmlns="http://www.w3.org/2000/svg" viewBox="0 0 400 300" fill="none">
  <!-- Background -->
  <rect width="400" height="300" rx="16" fill="#F0FDF4"/>
  <!-- Title -->
  <text x="200" y="28" text-anchor="middle" font-family="Arial, sans-serif" font-size="13" font-weight="bold" fill="#1E3A5F">Wahl des Bundespräsidenten</text>
  <!-- Step 1: Bundesversammlung tritt zusammen -->
  <rect x="20" y="45" width="155" height="55" rx="10" fill="#DBEAFE" stroke="#2563EB" stroke-width="2"/>
  <text x="97" y="67" text-anchor="middle" font-family="Arial, sans-serif" font-size="10" font-weight="bold" fill="#1E40AF">Bundesversammlung</text>
  <text x="97" y="82" text-anchor="middle" font-family="Arial, sans-serif" font-size="9" fill="#2563EB">tritt zusammen</text>
  <!-- Arrow right -->
  <line x1="175" y1="72" x2="205" y2="72" stroke="#2563EB" stroke-width="2"/>
  <polygon points="205,67 215,72 205,77" fill="#2563EB"/>
  <!-- Step 2: Wahlgang -->
  <rect x="215" y="45" width="165" height="55" rx="10" fill="#FEF9C3" stroke="#CA8A04" stroke-width="2"/>
  <text x="297" y="67" text-anchor="middle" font-family="Arial, sans-serif" font-size="10" font-weight="bold" fill="#92400E">Wahlgang</text>
  <text x="297" y="82" text-anchor="middle" font-family="Arial, sans-serif" font-size="9" fill="#CA8A04">geheime Abstimmung</text>
  <!-- Arrow down -->
  <line x1="297" y1="100" x2="297" y2="120" stroke="#CA8A04" stroke-width="2"/>
  <polygon points="292,120 302,120 297,130" fill="#CA8A04"/>
  <!-- Decision diamond -->
  <polygon points="297,135 360,165 297,195 234,165" fill="#FEF3C7" stroke="#CA8A04" stroke-width="2"/>
  <text x="297" y="162" text-anchor="middle" font-family="Arial, sans-serif" font-size="9" font-weight="bold" fill="#92400E">Absolute</text>
  <text x="297" y="174" text-anchor="middle" font-family="Arial, sans-serif" font-size="9" font-weight="bold" fill="#92400E">Mehrheit?</text>
  <!-- Yes arrow down -->
  <text x="310" y="205" font-family="Arial, sans-serif" font-size="9" font-weight="bold" fill="#16A34A">Ja ✓</text>
  <line x1="297" y1="195" x2="297" y2="220" stroke="#16A34A" stroke-width="2"/>
  <polygon points="292,220 302,220 297,230" fill="#16A34A"/>
  <!-- Elected box -->
  <rect x="210" y="232" width="175" height="50" rx="10" fill="#DCFCE7" stroke="#16A34A" stroke-width="2"/>
  <circle cx="250" cy="252" r="10" fill="#F59E0B"/>
  <rect x="244" y="262" width="12" height="10" rx="2" fill="#7C3AED"/>
  <text x="310" y="255" text-anchor="middle" font-family="Arial, sans-serif" font-size="11" font-weight="bold" fill="#166534">Gewählt!</text>
  <text x="310" y="270" text-anchor="middle" font-family="Arial, sans-serif" font-size="8" fill="#16A34A">Bundespräsident/in</text>
  <!-- No arrow left -->
  <text x="195" y="158" font-family="Arial, sans-serif" font-size="9" font-weight="bold" fill="#DC2626">Nein ✗</text>
  <line x1="234" y1="165" x2="175" y2="165" stroke="#DC2626" stroke-width="2"/>
  <polygon points="175,160 165,165 175,170" fill="#DC2626"/>
  <!-- Repeat box -->
  <rect x="30" y="135" width="135" height="60" rx="10" fill="#FEE2E2" stroke="#DC2626" stroke-width="2"/>
  <text x="97" y="155" text-anchor="middle" font-family="Arial, sans-serif" font-size="9" font-weight="bold" fill="#991B1B">Erneuter Wahlgang</text>
  <text x="97" y="168" text-anchor="middle" font-family="Arial, sans-serif" font-size="8" fill="#DC2626">1. &amp; 2. Wahlgang:</text>
  <text x="97" y="180" text-anchor="middle" font-family="Arial, sans-serif" font-size="8" fill="#DC2626">absolute Mehrheit nötig</text>
  <text x="97" y="192" text-anchor="middle" font-family="Arial, sans-serif" font-size="8" fill="#64748B">3. Wahlgang: einfache Mehrheit</text>
  <!-- Arrow back up from repeat to Wahlgang -->
  <line x1="97" y1="135" x2="97" y2="108" stroke="#DC2626" stroke-width="1.5" stroke-dasharray="4,3"/>
  <line x1="97" y1="108" x2="297" y2="108" stroke="#DC2626" stroke-width="1.5" stroke-dasharray="4,3"/>
  <polygon points="292,103 302,108 292,113" fill="#DC2626"/>
</svg>